<svg width="2954" height="759" xmlns="http://www.w3.org/2000/svg"><path d="M2954 19h-860v139h860V19Z"/><path fill-rule="evenodd" clip-rule="evenodd" d="M2094 307h714.48v139.77h-567.51v145.46H2954V732h-860V307ZM1117 304.18h140.34v.39h499.94v139.75h-499.94V735H1117V304.18ZM1117 19h640.28v139.749H1117V19Zm641.69 0C1879.26 19 1977 114.212 1977 231.66c0 117.45-97.74 212.66-218.31 212.66l-1.41-.13V304.13l.42.05c36.3 0 65.72-32.56 65.72-72.72 0-40.15-29.42-72.71-65.72-72.71l-.42.047V19.138l1.41-.138ZM107.763 0c37.197 0 69.992 17.419 89.358 43.913l3.363 5.725.157-.09.917 1.92 5.499 9.363 2.427 7.226L369.533 403.06l.675-.48 51.314 108.22.983 3.13 31.043 64.98 5.34 7.72c11.368 12.87 23.608 19.83 36.167 19.92l4.945-.88v152.88l-7.719.45c-48.526-1.11-94.957-29.57-133.68-79.38l-6.408-9.62-1.874 1.08-6.55-13.71-12.676-19.02c-8.629-15.03-16.69-31.3-24.091-48.72l-13.841-38.19-162.699-340.55v526.46H0V115.825h1.77L0 99.6C0 44.592 48.248 0 107.764 0Z" /><path fill-rule="evenodd" clip-rule="evenodd" d="M892.237 0c-37.197 0-69.992 17.419-89.358 43.913l-3.363 5.726-.157-.091-.917 1.92-5.499 9.363-2.427 7.226-160.048 334.998-.676-.474-51.314 108.224-.983 3.127-31.043 64.978-5.34 7.722c-11.368 12.87-23.609 19.83-36.166 19.915L500 605.67v152.881l7.719.449c48.526-1.109 94.957-29.569 133.68-79.382l6.408-9.615 1.874 1.074 6.55-13.711 12.677-19.018c8.628-15.029 16.689-31.299 24.09-48.715l13.841-38.197 162.699-340.544v526.462H1000V115.825h-1.77l1.769-16.225C1000 44.592 951.753 0 892.237 0Z"/></svg>
