<svg width="810" height="716" xmlns="http://www.w3.org/2000/svg"><path fill-rule="evenodd" clip-rule="evenodd" d="M0 0h4.496l16.99 7.111c75.223 33.186 170.521 88.488 268.041 158.04 24.38 17.389 47.749 34.849 69.907 52.149l10.563 8.64h.53l.111.19c8.059 9.58 19.203 15.51 31.518 15.51 12.306 0 23.449-5.93 31.509-15.51l.111-.19h.67l59.384-44.49c22.998-16.432 47.208-32.966 72.429-49.393 81.961-53.39 161.98-97.438 230.304-128.301L805.474 0H810v716V8.848l-6.378 11.813c-34.913 60.391-84.745 131.127-145.139 203.579a1867.474 1867.474 0 0 1-55.879 64.02l-50.332 52.5v.59l-.211.09c-10.843 7.13-17.551 16.98-17.551 27.86 0 10.88 6.708 20.73 17.551 27.86l.211.09v.48l9.772 9.33a1889.194 1889.194 0 0 1 58.993 61.79c78.687 86.21 141.254 170.44 178.79 236.94l5.467 10.21h-6.818l-1.843-.78c-68.314-30.86-148.343-74.91-230.304-128.3a2031.808 2031.808 0 0 1-72.429-49.39l-59.384-44.49h-.67l-.101-.19c-8.07-9.58-19.213-15.51-31.518-15.51-12.306 0-23.449 5.93-31.519 15.51l-.101.19h-.54l-10.553 8.64a2017.245 2017.245 0 0 1-69.916 52.15C192.077 623.38 96.789 678.68 21.557 711.87L11.684 716H0l10.172-19c37.537-66.49 100.104-150.72 178.791-236.93 19.665-21.55 39.409-42.21 58.993-61.79l9.772-9.34v-.47l.211-.09c10.843-7.13 17.551-16.98 17.551-27.86 0-10.88-6.708-20.73-17.551-27.86l-.211-.09v-.6l-50.332-52.49a1856.627 1856.627 0 0 1-55.879-64.02C91.123 143.006 41.291 72.269 6.378 11.879L0 .066V0Z"/></svg>


