<svg width="809" height="712" viewBox="0 0 809 712" fill="none" xmlns="http://www.w3.org/2000/svg">
<path fill-rule="evenodd" clip-rule="evenodd" d="M0 0H4.48999L21.46 7.06551C96.59 40.0391 191.77 94.9872 289.17 164.094C313.52 181.372 336.86 198.72 358.99 215.909L369.54 224.494H370.07L370.18 224.683C378.23 234.201 389.36 240.094 401.66 240.094C413.95 240.094 425.08 234.201 433.13 224.683L433.24 224.494H433.91L493.22 180.289C516.19 163.962 540.37 147.534 565.56 131.212C647.42 78.1635 727.34 34.3974 795.58 3.73194L804.48 0H809V711.418V8.7914L802.63 20.5288C767.76 80.5333 717.99 150.817 657.67 222.805C639.11 244.952 620.42 266.215 601.86 286.415L551.59 338.579V339.165L551.38 339.255C540.55 346.339 533.85 356.126 533.85 366.937C533.85 377.747 540.55 387.534 551.38 394.618L551.59 394.708V395.185L561.35 404.455C580.9 423.92 600.63 444.437 620.27 465.849C698.86 551.508 761.35 635.199 798.84 701.273L804.3 711.418H797.49L795.65 710.643C727.42 679.98 647.49 636.212 565.63 583.164C540.44 566.849 516.26 550.415 493.29 534.09L433.98 489.885H433.31L433.21 489.696C425.15 480.177 414.02 474.285 401.73 474.285C389.44 474.285 378.31 480.177 370.25 489.696L370.15 489.885H369.61L359.07 498.469C336.93 515.659 313.6 533.007 289.24 550.285C191.84 619.39 96.67 674.336 21.53 707.314L11.6699 711.418H0L10.1599 692.539C47.6499 626.475 110.14 542.784 188.73 457.126C208.37 435.713 228.09 415.186 247.65 395.731L257.41 386.451V385.984L257.62 385.894C268.45 378.81 275.15 369.023 275.15 358.213C275.15 347.402 268.45 337.615 257.62 330.531L257.41 330.442V329.845L207.14 277.691C188.57 257.491 169.89 236.228 151.33 214.081C91.0101 142.091 41.2401 71.8065 6.37012 11.803L0 0.0655567V0Z" fill="#CF191E"/>
</svg>
