<svg width="3847" height="759" viewBox="0 0 3847 759" fill="none" xmlns="http://www.w3.org/2000/svg">
<path d="M3051.15 733.68L3042.54 725.078L3047.67 715.5C3085.21 649.01 3147.78 564.78 3226.46 478.57C3246.13 457.02 3265.87 436.36 3285.46 416.78L3295.23 407.44V406.97L3295.44 406.88C3306.28 399.75 3312.99 389.9 3312.99 379.02C3312.99 368.14 3306.28 358.29 3295.44 351.16L3295.23 351.07V350.47L3244.9 297.98C3226.3 277.65 3207.6 256.25 3189.02 233.96C3128.62 161.506 3077.91 91.8904 3043 31.5004L3040.76 27.7711L3048.18 20.3545L3059.5 25.5004C3134.5 60.0004 3229.51 114.099 3327.03 183.651C3351.41 201.04 3374.78 218.5 3396.93 235.8L3407.5 244.44H3408.03L3408.14 244.63C3416.2 254.21 3427.34 260.14 3439.66 260.14C3451.96 260.14 3463.11 254.21 3471.17 244.63L3471.28 244.44H3471.95L3531.33 199.95C3554.33 183.518 3578.54 166.984 3603.76 150.557C3685.72 97.1674 3765.74 53.1193 3834.06 22.2563L3837.39 20.8551L3847 31C3827.1 77.6755 3755.04 172.493 3696.48 242.74C3677.9 265.03 3658.69 286.43 3640.1 306.76L3589.77 359.26V359.85L3589.56 359.94C3578.72 367.07 3572.01 376.92 3572.01 387.8C3572.01 398.68 3578.72 408.53 3589.56 415.66L3589.77 415.75V416.23L3599.54 425.56C3619.12 445.15 3638.87 465.8 3658.54 487.35C3737.22 573.56 3800.96 657.5 3838.5 724L3840 727L3833.96 733.641C3765.68 702.785 3685.72 658.765 3603.83 605.42C3578.61 589 3554.4 572.46 3531.4 556.03L3472.02 511.54H3471.35L3471.25 511.35C3463.18 501.77 3452.03 495.84 3439.73 495.84C3427.42 495.84 3416.28 501.77 3408.21 511.35L3408.11 511.54H3407.57L3397.01 520.18C3374.85 537.48 3351.49 554.94 3327.1 572.33C3229.58 641.88 3134.29 697.18 3059.06 730.37L3051.15 733.68Z" fill="#CF191E"/>
<path d="M2954 19H2094V158H2954V19Z" fill="#151515"/>
<path fill-rule="evenodd" clip-rule="evenodd" d="M2094 307H2808.48V446.77H2240.97V592.23H2954V732H2094V649.35V383.55V307Z" fill="#151515"/>
<path fill-rule="evenodd" clip-rule="evenodd" d="M1117 304.18H1257.34L1757.28 304.57V444.32H1257.34V735H1117V304.18ZM1117 19H1757.28V158.749H1117V19ZM1758.69 19C1879.26 19 1977 114.212 1977 231.66C1977 349.11 1879.26 444.32 1758.69 444.32L1757.28 444.19V304.13L1757.7 304.18C1794 304.18 1823.42 271.62 1823.42 231.46C1823.42 191.31 1794 158.75 1757.7 158.75L1757.28 158.797V19.138L1758.69 19Z" fill="#151515"/>
<path fill-rule="evenodd" clip-rule="evenodd" d="M107.763 0C144.96 0 177.755 17.419 197.121 43.913L200.484 49.638L200.641 49.548L201.558 51.468L207.057 60.831L209.484 68.057L369.533 403.06L370.208 402.58L421.522 510.8L422.505 513.93L453.548 578.91L458.888 586.63C470.256 599.5 482.496 606.46 495.055 606.55H500V759H492.281C443.755 757.89 397.324 729.43 358.601 679.62L352.193 670L343.769 657.37L333 639C324.37 623.97 316 607 308.5 589.5L293.161 551.44L130.462 210.89V737.35H0V115.825L0.000918869 99.6C6.45989e-06 44.592 48.2473 0 107.763 0Z" fill="#151515"/>
<path fill-rule="evenodd" clip-rule="evenodd" d="M892.237 0C855.04 0 822.245 17.419 802.879 43.913L799.516 49.639L799.359 49.548L798.442 51.468L792.943 60.831L790.516 68.057L630.468 403.055L629.792 402.581L578.478 510.805L577.495 513.932L546.452 578.91L541.112 586.632C529.744 599.502 517.503 606.462 504.946 606.547H500V759H507.719C556.245 757.891 602.676 729.431 641.399 679.618L647.807 670.003L656.231 657.366L668.5 637.5C677.129 622.471 685.597 607.049 692.998 589.633L706.839 551.436L869.538 210.892V737.354L1000 737.354V115.825L999.999 99.6C1000 44.592 951.753 0 892.237 0Z" fill="#151515"/>
</svg>
